# xmcd CD database file
#
# Track frame offsets:
#	150
#	18916
#	42755
#	62308
#	85067
#	98432
#	126938
#	164571
#	188065
#	205933
#
# Disc length: 2982 seconds
#
# Revision: 0
# Processed by: cddbd v1.5.2PL0 Copyright (c) Steve Scherf et al.
# Submitted via: CDex 1.51
#
DISCID=740ba40a
DTITLE=Various Artist - Hot and Spicy Salsa [CD1]
DYEAR=2008
DGENRE=Salsa
TTITLE0=Me tienes loco - Ismael Rivera
TTITLE1=A la buena si - Celia Cruz y la Sonora Ponceña
TTITLE2=La vibora - Bobby Valentin
TTITLE3=Trucutu - Tommy Olivencia
TTITLE4=Mano caliente - Cheo Feliciano
TTITLE5=Vivan tus ojos verdes - Tito Allen
TTITLE6=El faisan - Johnny Pacheco
TTITLE7=Para Puerto Rico voy - Joe Bataan
TTITLE8=Campanero - Willie Rosario
TTITLE9=Sonerito - Ismael Miranda
EXTD=YEAR: 2008
EXTT0=
EXTT1=
EXTT2=
EXTT3=
EXTT4=
EXTT5=
EXTT6=
EXTT7=
EXTT8=
EXTT9=
PLAYORDER=
